<svg xmlns="http://www.w3.org/2000/svg" width="1800" height="1170" viewBox="0 0 1800 1170">
<rect width="100%" height="100%" fill="#FFFFFF"/>
<defs>
<pattern id="diag" width="10" height="10" patternUnits="userSpaceOnUse"><path d="M-2,10 L10,-2 M4,12 L12,4" stroke="#FFFFFF" stroke-width="2" opacity="0.45"/></pattern>
<pattern id="dots" width="10" height="10" patternUnits="userSpaceOnUse"><circle cx="3" cy="3" r="1.6" fill="#FFFFFF" opacity="0.55"/></pattern>
<pattern id="cross" width="12" height="12" patternUnits="userSpaceOnUse"><path d="M2,2 L10,10 M10,2 L2,10" stroke="#FFFFFF" stroke-width="1.5" opacity="0.45"/></pattern>
</defs>
<text x="70" y="65" font-family="Arial, sans-serif" font-size="35" font-weight="700" text-anchor="start" fill="#17202A">Keylane, Dragonfly, and Garnet storage-tier throughput</text>
<text x="70" y="105" font-family="Arial, sans-serif" font-size="21" font-weight="400" text-anchor="start" fill="#566573">1B keys × 1 KiB · 60 s/run · 16 memtier threads · pipeline 1</text>
<rect x="380" y="145" width="48" height="26" rx="3" fill="#1473E6"/>
<rect x="380" y="145" width="48" height="26" rx="3" fill="url(#diag)"/>
<text x="440" y="166" font-family="Arial, sans-serif" font-size="18" font-weight="400" text-anchor="start" fill="#17202A">Keylane · raw NVMe</text>
<rect x="835" y="145" width="48" height="26" rx="3" fill="#E97827"/>
<rect x="835" y="145" width="48" height="26" rx="3" fill="url(#dots)"/>
<text x="895" y="166" font-family="Arial, sans-serif" font-size="18" font-weight="400" text-anchor="start" fill="#17202A">Dragonfly · Tiered Storage</text>
<rect x="1290" y="145" width="48" height="26" rx="3" fill="#C84C8A"/>
<rect x="1290" y="145" width="48" height="26" rx="3" fill="url(#cross)"/>
<text x="1350" y="166" font-family="Arial, sans-serif" font-size="18" font-weight="400" text-anchor="start" fill="#17202A">Garnet · Storage Tier</text>
<text x="145" y="225" font-family="Arial, sans-serif" font-size="25" font-weight="700" text-anchor="start" fill="#17202A">GET throughput</text>
<line x1="145" y1="590.00" x2="1745" y2="590.00" stroke="#DDE3E8"/>
<text x="130" y="596.0" font-family="Arial, sans-serif" font-size="17" font-weight="400" text-anchor="end" fill="#566573">0k</text>
<line x1="145" y1="533.33" x2="1745" y2="533.33" stroke="#DDE3E8"/>
<text x="130" y="539.3333333333334" font-family="Arial, sans-serif" font-size="17" font-weight="400" text-anchor="end" fill="#566573">150k</text>
<line x1="145" y1="476.67" x2="1745" y2="476.67" stroke="#DDE3E8"/>
<text x="130" y="482.6666666666667" font-family="Arial, sans-serif" font-size="17" font-weight="400" text-anchor="end" fill="#566573">300k</text>
<line x1="145" y1="420.00" x2="1745" y2="420.00" stroke="#DDE3E8"/>
<text x="130" y="426.0" font-family="Arial, sans-serif" font-size="17" font-weight="400" text-anchor="end" fill="#566573">450k</text>
<line x1="145" y1="363.33" x2="1745" y2="363.33" stroke="#DDE3E8"/>
<text x="130" y="369.33333333333337" font-family="Arial, sans-serif" font-size="17" font-weight="400" text-anchor="end" fill="#566573">600k</text>
<line x1="145" y1="306.67" x2="1745" y2="306.67" stroke="#DDE3E8"/>
<text x="130" y="312.6666666666667" font-family="Arial, sans-serif" font-size="17" font-weight="400" text-anchor="end" fill="#566573">750k</text>
<line x1="145" y1="250.00" x2="1745" y2="250.00" stroke="#DDE3E8"/>
<text x="130" y="256.0" font-family="Arial, sans-serif" font-size="17" font-weight="400" text-anchor="end" fill="#566573">900k</text>
<line x1="145" y1="250" x2="145" y2="590" stroke="#7B8794" stroke-width="1.5"/>
<line x1="145" y1="590" x2="1745" y2="590" stroke="#7B8794" stroke-width="1.5"/>
<rect x="172.83" y="494.33" width="65" height="95.67" rx="2" fill="#1473E6"/>
<rect x="172.83" y="494.33" width="65" height="95.67" rx="2" fill="url(#diag)"/>
<rect x="245.83" y="514.62" width="65" height="75.38" rx="2" fill="#E97827"/>
<rect x="245.83" y="514.62" width="65" height="75.38" rx="2" fill="url(#dots)"/>
<rect x="318.83" y="523.13" width="65" height="66.87" rx="2" fill="#C84C8A"/>
<rect x="318.83" y="523.13" width="65" height="66.87" rx="2" fill="url(#cross)"/>
<text x="278.33333333333337" y="621" font-family="Arial, sans-serif" font-size="18" font-weight="400" text-anchor="middle" fill="#34495E">80</text>
<rect x="439.50" y="421.96" width="65" height="168.04" rx="2" fill="#1473E6"/>
<rect x="439.50" y="421.96" width="65" height="168.04" rx="2" fill="url(#diag)"/>
<rect x="512.50" y="477.57" width="65" height="112.43" rx="2" fill="#E97827"/>
<rect x="512.50" y="477.57" width="65" height="112.43" rx="2" fill="url(#dots)"/>
<rect x="585.50" y="496.36" width="65" height="93.64" rx="2" fill="#C84C8A"/>
<rect x="585.50" y="496.36" width="65" height="93.64" rx="2" fill="url(#cross)"/>
<text x="545.0" y="621" font-family="Arial, sans-serif" font-size="18" font-weight="400" text-anchor="middle" fill="#34495E">160</text>
<rect x="706.17" y="340.14" width="65" height="249.86" rx="2" fill="#1473E6"/>
<rect x="706.17" y="340.14" width="65" height="249.86" rx="2" fill="url(#diag)"/>
<rect x="779.17" y="458.69" width="65" height="131.31" rx="2" fill="#E97827"/>
<rect x="779.17" y="458.69" width="65" height="131.31" rx="2" fill="url(#dots)"/>
<rect x="852.17" y="474.30" width="65" height="115.70" rx="2" fill="#C84C8A"/>
<rect x="852.17" y="474.30" width="65" height="115.70" rx="2" fill="url(#cross)"/>
<text x="811.6666666666667" y="621" font-family="Arial, sans-serif" font-size="18" font-weight="400" text-anchor="middle" fill="#34495E">320</text>
<rect x="972.83" y="298.55" width="65" height="291.45" rx="2" fill="#1473E6"/>
<rect x="972.83" y="298.55" width="65" height="291.45" rx="2" fill="url(#diag)"/>
<rect x="1045.83" y="450.99" width="65" height="139.01" rx="2" fill="#E97827"/>
<rect x="1045.83" y="450.99" width="65" height="139.01" rx="2" fill="url(#dots)"/>
<rect x="1118.83" y="464.33" width="65" height="125.67" rx="2" fill="#C84C8A"/>
<rect x="1118.83" y="464.33" width="65" height="125.67" rx="2" fill="url(#cross)"/>
<text x="1078.3333333333335" y="621" font-family="Arial, sans-serif" font-size="18" font-weight="400" text-anchor="middle" fill="#34495E">640</text>
<rect x="1239.50" y="293.75" width="65" height="296.25" rx="2" fill="#1473E6"/>
<rect x="1239.50" y="293.75" width="65" height="296.25" rx="2" fill="url(#diag)"/>
<rect x="1312.50" y="446.88" width="65" height="143.12" rx="2" fill="#E97827"/>
<rect x="1312.50" y="446.88" width="65" height="143.12" rx="2" fill="url(#dots)"/>
<rect x="1385.50" y="469.80" width="65" height="120.20" rx="2" fill="#C84C8A"/>
<rect x="1385.50" y="469.80" width="65" height="120.20" rx="2" fill="url(#cross)"/>
<text x="1345.0" y="621" font-family="Arial, sans-serif" font-size="18" font-weight="400" text-anchor="middle" fill="#34495E">1,280</text>
<rect x="1506.17" y="329.24" width="65" height="260.76" rx="2" fill="#1473E6"/>
<rect x="1506.17" y="329.24" width="65" height="260.76" rx="2" fill="url(#diag)"/>
<rect x="1579.17" y="449.51" width="65" height="140.49" rx="2" fill="#E97827"/>
<rect x="1579.17" y="449.51" width="65" height="140.49" rx="2" fill="url(#dots)"/>
<rect x="1652.17" y="479.51" width="65" height="110.49" rx="2" fill="#C84C8A"/>
<rect x="1652.17" y="479.51" width="65" height="110.49" rx="2" fill="url(#cross)"/>
<text x="1611.6666666666667" y="621" font-family="Arial, sans-serif" font-size="18" font-weight="400" text-anchor="middle" fill="#34495E">2,560</text>
<text x="945.0" y="657" font-family="Arial, sans-serif" font-size="18" font-weight="700" text-anchor="middle" fill="#17202A">Concurrent connections</text>
<text x="145" y="665" font-family="Arial, sans-serif" font-size="25" font-weight="700" text-anchor="start" fill="#17202A">SET throughput</text>
<line x1="145" y1="1030.00" x2="1745" y2="1030.00" stroke="#DDE3E8"/>
<text x="130" y="1036.0" font-family="Arial, sans-serif" font-size="17" font-weight="400" text-anchor="end" fill="#566573">0k</text>
<line x1="145" y1="973.33" x2="1745" y2="973.33" stroke="#DDE3E8"/>
<text x="130" y="979.3333333333334" font-family="Arial, sans-serif" font-size="17" font-weight="400" text-anchor="end" fill="#566573">150k</text>
<line x1="145" y1="916.67" x2="1745" y2="916.67" stroke="#DDE3E8"/>
<text x="130" y="922.6666666666666" font-family="Arial, sans-serif" font-size="17" font-weight="400" text-anchor="end" fill="#566573">300k</text>
<line x1="145" y1="860.00" x2="1745" y2="860.00" stroke="#DDE3E8"/>
<text x="130" y="866.0" font-family="Arial, sans-serif" font-size="17" font-weight="400" text-anchor="end" fill="#566573">450k</text>
<line x1="145" y1="803.33" x2="1745" y2="803.33" stroke="#DDE3E8"/>
<text x="130" y="809.3333333333334" font-family="Arial, sans-serif" font-size="17" font-weight="400" text-anchor="end" fill="#566573">600k</text>
<line x1="145" y1="746.67" x2="1745" y2="746.67" stroke="#DDE3E8"/>
<text x="130" y="752.6666666666667" font-family="Arial, sans-serif" font-size="17" font-weight="400" text-anchor="end" fill="#566573">750k</text>
<line x1="145" y1="690.00" x2="1745" y2="690.00" stroke="#DDE3E8"/>
<text x="130" y="696.0" font-family="Arial, sans-serif" font-size="17" font-weight="400" text-anchor="end" fill="#566573">900k</text>
<line x1="145" y1="690" x2="145" y2="1030" stroke="#7B8794" stroke-width="1.5"/>
<line x1="145" y1="1030" x2="1745" y2="1030" stroke="#7B8794" stroke-width="1.5"/>
<rect x="172.83" y="908.98" width="65" height="121.02" rx="2" fill="#1473E6"/>
<rect x="172.83" y="908.98" width="65" height="121.02" rx="2" fill="url(#diag)"/>
<rect x="245.83" y="928.66" width="65" height="101.34" rx="2" fill="#E97827"/>
<rect x="245.83" y="928.66" width="65" height="101.34" rx="2" fill="url(#dots)"/>
<rect x="318.83" y="891.87" width="65" height="138.13" rx="2" fill="#C84C8A"/>
<rect x="318.83" y="891.87" width="65" height="138.13" rx="2" fill="url(#cross)"/>
<text x="278.33333333333337" y="1061" font-family="Arial, sans-serif" font-size="18" font-weight="400" text-anchor="middle" fill="#34495E">80</text>
<rect x="439.50" y="836.05" width="65" height="193.95" rx="2" fill="#1473E6"/>
<rect x="439.50" y="836.05" width="65" height="193.95" rx="2" fill="url(#diag)"/>
<rect x="512.50" y="887.07" width="65" height="142.93" rx="2" fill="#E97827"/>
<rect x="512.50" y="887.07" width="65" height="142.93" rx="2" fill="url(#dots)"/>
<rect x="585.50" y="844.76" width="65" height="185.24" rx="2" fill="#C84C8A"/>
<rect x="585.50" y="844.76" width="65" height="185.24" rx="2" fill="url(#cross)"/>
<text x="545.0" y="1061" font-family="Arial, sans-serif" font-size="18" font-weight="400" text-anchor="middle" fill="#34495E">160</text>
<rect x="706.17" y="776.18" width="65" height="253.82" rx="2" fill="#1473E6"/>
<rect x="706.17" y="776.18" width="65" height="253.82" rx="2" fill="url(#diag)"/>
<rect x="779.17" y="863.51" width="65" height="166.49" rx="2" fill="#E97827"/>
<rect x="779.17" y="863.51" width="65" height="166.49" rx="2" fill="url(#dots)"/>
<rect x="852.17" y="777.24" width="65" height="252.76" rx="2" fill="#C84C8A"/>
<rect x="852.17" y="777.24" width="65" height="252.76" rx="2" fill="url(#cross)"/>
<text x="811.6666666666667" y="1061" font-family="Arial, sans-serif" font-size="18" font-weight="400" text-anchor="middle" fill="#34495E">320</text>
<rect x="972.83" y="723.34" width="65" height="306.66" rx="2" fill="#1473E6"/>
<rect x="972.83" y="723.34" width="65" height="306.66" rx="2" fill="url(#diag)"/>
<rect x="1045.83" y="850.60" width="65" height="179.40" rx="2" fill="#E97827"/>
<rect x="1045.83" y="850.60" width="65" height="179.40" rx="2" fill="url(#dots)"/>
<rect x="1118.83" y="743.86" width="65" height="286.14" rx="2" fill="#C84C8A"/>
<rect x="1118.83" y="743.86" width="65" height="286.14" rx="2" fill="url(#cross)"/>
<text x="1078.3333333333335" y="1061" font-family="Arial, sans-serif" font-size="18" font-weight="400" text-anchor="middle" fill="#34495E">640</text>
<rect x="1239.50" y="706.42" width="65" height="323.58" rx="2" fill="#1473E6"/>
<rect x="1239.50" y="706.42" width="65" height="323.58" rx="2" fill="url(#diag)"/>
<rect x="1312.50" y="805.24" width="65" height="224.76" rx="2" fill="#E97827"/>
<rect x="1312.50" y="805.24" width="65" height="224.76" rx="2" fill="url(#dots)"/>
<rect x="1385.50" y="741.03" width="65" height="288.97" rx="2" fill="#C84C8A"/>
<rect x="1385.50" y="741.03" width="65" height="288.97" rx="2" fill="url(#cross)"/>
<text x="1345.0" y="1061" font-family="Arial, sans-serif" font-size="18" font-weight="400" text-anchor="middle" fill="#34495E">1,280</text>
<rect x="1506.17" y="731.49" width="65" height="298.51" rx="2" fill="#1473E6"/>
<rect x="1506.17" y="731.49" width="65" height="298.51" rx="2" fill="url(#diag)"/>
<rect x="1579.17" y="827.06" width="65" height="202.94" rx="2" fill="#E97827"/>
<rect x="1579.17" y="827.06" width="65" height="202.94" rx="2" fill="url(#dots)"/>
<rect x="1652.17" y="757.90" width="65" height="272.10" rx="2" fill="#C84C8A"/>
<rect x="1652.17" y="757.90" width="65" height="272.10" rx="2" fill="url(#cross)"/>
<text x="1611.6666666666667" y="1061" font-family="Arial, sans-serif" font-size="18" font-weight="400" text-anchor="middle" fill="#34495E">2,560</text>
<text x="945.0" y="1097" font-family="Arial, sans-serif" font-size="18" font-weight="700" text-anchor="middle" fill="#17202A">Concurrent connections</text>
<text x="70" y="1145" font-family="Arial, sans-serif" font-size="17" font-weight="400" text-anchor="start" fill="#566573">Keylane uses six raw NVMe devices; Dragonfly and Garnet use tier files on the same six-device RAID0/XFS.</text>
</svg>
